<svg xmlns="http://www.w3.org/2000/svg" width="768" height="1024" viewBox="0 0 768 1024" fill="none">
  <rect width="768" height="1024" fill="#E9ECEF"/>
  <rect x="84" y="112" width="600" height="800" fill="#CED4DA"/>
  <rect x="184" y="262" width="400" height="500" fill="#ADB5BD"/>
  <path d="M258 440C258 433.333 259.333 427.333 262 422C264.667 416.667 268.4 412.467 273.2 409.4C278 406.333 283.6 404.8 290 404.8C297.2 404.8 303.333 406.733 308.4 410.6C313.467 414.467 316.8 419.867 318.4 426.8H305.2C304.133 423.6 302.267 421.133 299.6 419.4C296.933 417.667 293.733 416.8 290 416.8C286.267 416.8 283.067 417.733 280.4 419.6C277.733 421.467 275.733 424.133 274.4 427.6C273.067 431.067 272.4 435.133 272.4 439.8C272.4 444.467 273.067 448.533 274.4 452C275.733 455.467 277.733 458.133 280.4 460C283.067 461.867 286.267 462.8 290 462.8C293.733 462.8 296.933 461.933 299.6 460.2C302.267 458.467 304.133 456 305.2 452.8H318.4C316.8 459.733 313.467 465.133 308.4 469C303.333 472.867 297.2 474.8 290 474.8C283.6 474.8 278 473.267 273.2 470.2C268.4 467.133 264.667 462.933 262 457.6C259.333 452.267 258 446.467 258 440Z" fill="#212529"/>
  <path d="M324.125 474V405.6H347.325C353.058 405.6 357.858 406.8 361.725 409.2C365.592 411.6 368.525 414.867 370.525 419C372.525 423.133 373.525 427.8 373.525 433C373.525 438.2 372.525 442.867 370.525 447C368.525 451.133 365.592 454.4 361.725 456.8C357.858 459.2 353.058 460.4 347.325 460.4H331.325V474H324.125ZM331.325 453.8H346.925C351.258 453.8 354.725 453 357.325 451.4C359.925 449.8 361.792 447.6 362.925 444.8C364.058 442 364.625 437.8 364.625 433.2C364.625 428.6 364.058 424.733 362.925 421.6C361.792 418.467 359.925 416.067 357.325 414.4C354.725 412.733 351.258 411.9 346.925 411.9H331.325V453.8Z" fill="#212529"/>
  <path d="M383.898 474V405.6H439.098V412.3H391.098V435.8H436.298V442.5H391.098V467.3H439.098V474H383.898Z" fill="#212529"/>
  <path d="M449.117 474V405.6H488.917C493.517 405.6 497.45 406.467 500.717 408.2C503.983 409.933 506.45 412.2 508.117 415C509.783 417.8 510.617 420.933 510.617 424.4C510.617 428.467 509.517 432.067 507.317 435.2C505.117 438.333 501.917 440.533 497.717 441.8V442.2C502.45 442.733 506.05 444.6 508.517 447.8C510.983 451 512.217 454.933 512.217 459.6C512.217 463.467 511.317 466.933 509.517 470C507.717 473.067 505.05 475.467 501.517 477.2C497.983 478.933 493.717 479.8 488.717 479.8C487.517 479.8 486.383 479.767 485.317 479.7C484.25 479.633 483.383 479.567 482.717 479.5V474H449.117ZM456.317 436.8H487.317C491.05 436.8 494.117 436.067 496.517 434.6C498.917 433.133 500.65 431.233 501.717 428.9C502.783 426.567 503.317 424.067 503.317 421.4C503.317 418.733 502.717 416.4 501.517 414.4C500.317 412.4 498.45 410.867 495.917 409.8C493.383 408.733 490.117 408.2 486.117 408.2H456.317V436.8ZM456.317 471.4H488.717C492.45 471.4 495.65 470.933 498.317 470C500.983 469.067 503.05 467.567 504.517 465.5C505.983 463.433 506.717 460.8 506.717 457.6C506.717 454.267 505.917 451.533 504.317 449.4C502.717 447.267 500.45 445.667 497.517 444.6C494.583 443.533 491.183 443 487.317 443H456.317V471.4Z" fill="#212529"/>
  <path d="M522.164 474V405.6H562.764C567.364 405.6 571.298 406.533 574.564 408.4C577.831 410.267 580.298 412.667 581.964 415.6C583.631 418.533 584.464 421.667 584.464 425C584.464 428.6 583.431 432.067 581.364 435.4C579.298 438.733 576.098 441.333 571.764 443.2L586.964 474H578.564L564.364 444.8H529.364V474H522.164ZM529.364 438.6H561.964C565.698 438.6 568.764 437.9 571.164 436.5C573.564 435.1 575.298 433.267 576.364 431C577.431 428.733 577.964 426.333 577.964 423.8C577.964 421.267 577.364 418.933 576.164 416.8C574.964 414.667 573.098 412.967 570.564 411.7C568.031 410.433 564.764 409.8 560.764 409.8H529.364V438.6Z" fill="#212529"/>
  <path d="M594.617 440C594.617 433.333 595.95 427.333 598.617 422C601.283 416.667 605.017 412.467 609.817 409.4C614.617 406.333 620.217 404.8 626.617 404.8C633.817 404.8 639.95 406.733 645.017 410.6C650.083 414.467 653.417 419.867 655.017 426.8H641.817C640.75 423.6 638.883 421.133 636.217 419.4C633.55 417.667 630.35 416.8 626.617 416.8C622.883 416.8 619.683 417.733 617.017 419.6C614.35 421.467 612.35 424.133 611.017 427.6C609.683 431.067 609.017 435.133 609.017 439.8C609.017 444.467 609.683 448.533 611.017 452C612.35 455.467 614.35 458.133 617.017 460C619.683 461.867 622.883 462.8 626.617 462.8C630.35 462.8 633.55 461.933 636.217 460.2C638.883 458.467 640.75 456 641.817 452.8H655.017C653.417 459.733 650.083 465.133 645.017 469C639.95 472.867 633.817 474.8 626.617 474.8C620.217 474.8 614.617 473.267 609.817 470.2C605.017 467.133 601.283 462.933 598.617 457.6C595.95 452.267 594.617 446.467 594.617 440Z" fill="#212529"/>
  <path d="M664.742 474V405.6H671.942V474H664.742Z" fill="#212529"/>
  <path d="M692.242 474V412.3H668.642V405.6H723.042V412.3H699.442V474H692.242Z" fill="#212529"/>
  <text x="384" y="600" font-family="Arial" font-size="24" fill="#212529" text-anchor="middle">Tablet image placeholder (768x1024px)</text>
</svg>