<svg xmlns="http://www.w3.org/2000/svg" width="1200" height="800" viewBox="0 0 1200 800" fill="none">
  <rect width="1200" height="800" fill="#E9ECEF"/>
  <rect x="150" y="100" width="900" height="600" fill="#CED4DA"/>
  <rect x="350" y="200" width="500" height="400" fill="#ADB5BD"/>
  <path d="M420 370C420 363.333 421.333 357.333 424 352C426.667 346.667 430.4 342.467 435.2 339.4C440 336.333 445.6 334.8 452 334.8C459.2 334.8 465.333 336.733 470.4 340.6C475.467 344.467 478.8 349.867 480.4 356.8H467.2C466.133 353.6 464.267 351.133 461.6 349.4C458.933 347.667 455.733 346.8 452 346.8C448.267 346.8 445.067 347.733 442.4 349.6C439.733 351.467 437.733 354.133 436.4 357.6C435.067 361.067 434.4 365.133 434.4 369.8C434.4 374.467 435.067 378.533 436.4 382C437.733 385.467 439.733 388.133 442.4 390C445.067 391.867 448.267 392.8 452 392.8C455.733 392.8 458.933 391.933 461.6 390.2C464.267 388.467 466.133 386 467.2 382.8H480.4C478.8 389.733 475.467 395.133 470.4 399C465.333 402.867 459.2 404.8 452 404.8C445.6 404.8 440 403.267 435.2 400.2C430.4 397.133 426.667 392.933 424 387.6C421.333 382.267 420 376.467 420 370Z" fill="#212529"/>
  <path d="M486.125 404V335.6H509.325C515.058 335.6 519.858 336.8 523.725 339.2C527.591 341.6 530.525 344.867 532.525 349C534.525 353.133 535.525 357.8 535.525 363C535.525 368.2 534.525 372.867 532.525 377C530.525 381.133 527.591 384.4 523.725 386.8C519.858 389.2 515.058 390.4 509.325 390.4H493.325V404H486.125ZM493.325 383.8H508.925C513.258 383.8 516.725 383 519.325 381.4C521.925 379.8 523.791 377.6 524.925 374.8C526.058 372 526.625 367.8 526.625 363.2C526.625 358.6 526.058 354.733 524.925 351.6C523.791 348.467 521.925 346.067 519.325 344.4C516.725 342.733 513.258 341.9 508.925 341.9H493.325V383.8Z" fill="#212529"/>
  <path d="M545.898 404V335.6H601.098V342.3H553.098V365.8H598.298V372.5H553.098V397.3H601.098V404H545.898Z" fill="#212529"/>
  <path d="M611.117 404V335.6H650.917C655.517 335.6 659.45 336.467 662.717 338.2C665.983 339.933 668.45 342.2 670.117 345C671.783 347.8 672.617 350.933 672.617 354.4C672.617 358.467 671.517 362.067 669.317 365.2C667.117 368.333 663.917 370.533 659.717 371.8V372.2C664.45 372.733 668.05 374.6 670.517 377.8C672.983 381 674.217 384.933 674.217 389.6C674.217 393.467 673.317 396.933 671.517 400C669.717 403.067 667.05 405.467 663.517 407.2C659.983 408.933 655.717 409.8 650.717 409.8C649.517 409.8 648.383 409.767 647.317 409.7C646.25 409.633 645.383 409.567 644.717 409.5V404H611.117ZM618.317 366.8H649.317C653.05 366.8 656.117 366.067 658.517 364.6C660.917 363.133 662.65 361.233 663.717 358.9C664.783 356.567 665.317 354.067 665.317 351.4C665.317 348.733 664.717 346.4 663.517 344.4C662.317 342.4 660.45 340.867 657.917 339.8C655.383 338.733 652.117 338.2 648.117 338.2H618.317V366.8ZM618.317 401.4H650.717C654.45 401.4 657.65 400.933 660.317 400C662.983 399.067 665.05 397.567 666.517 395.5C667.983 393.433 668.717 390.8 668.717 387.6C668.717 384.267 667.917 381.533 666.317 379.4C664.717 377.267 662.45 375.667 659.517 374.6C656.583 373.533 653.183 373 649.317 373H618.317V401.4Z" fill="#212529"/>
  <path d="M684.164 404V335.6H724.764C729.364 335.6 733.298 336.533 736.564 338.4C739.831 340.267 742.298 342.667 743.964 345.6C745.631 348.533 746.464 351.667 746.464 355C746.464 358.6 745.431 362.067 743.364 365.4C741.298 368.733 738.098 371.333 733.764 373.2L748.964 404H740.564L726.364 374.8H691.364V404H684.164ZM691.364 368.6H723.964C727.698 368.6 730.764 367.9 733.164 366.5C735.564 365.1 737.298 363.267 738.364 361C739.431 358.733 739.964 356.333 739.964 353.8C739.964 351.267 739.364 348.933 738.164 346.8C736.964 344.667 735.098 342.967 732.564 341.7C730.031 340.433 726.764 339.8 722.764 339.8H691.364V368.6Z" fill="#212529"/>
  <path d="M756.617 370C756.617 363.333 757.95 357.333 760.617 352C763.283 346.667 767.017 342.467 771.817 339.4C776.617 336.333 782.217 334.8 788.617 334.8C795.817 334.8 801.95 336.733 807.017 340.6C812.083 344.467 815.417 349.867 817.017 356.8H803.817C802.75 353.6 800.883 351.133 798.217 349.4C795.55 347.667 792.35 346.8 788.617 346.8C784.883 346.8 781.683 347.733 779.017 349.6C776.35 351.467 774.35 354.133 773.017 357.6C771.683 361.067 771.017 365.133 771.017 369.8C771.017 374.467 771.683 378.533 773.017 382C774.35 385.467 776.35 388.133 779.017 390C781.683 391.867 784.883 392.8 788.617 392.8C792.35 392.8 795.55 391.933 798.217 390.2C800.883 388.467 802.75 386 803.817 382.8H817.017C815.417 389.733 812.083 395.133 807.017 399C801.95 402.867 795.817 404.8 788.617 404.8C782.217 404.8 776.617 403.267 771.817 400.2C767.017 397.133 763.283 392.933 760.617 387.6C757.95 382.267 756.617 376.467 756.617 370Z" fill="#212529"/>
  <path d="M826.742 404V335.6H833.942V404H826.742Z" fill="#212529"/>
  <path d="M854.242 404V342.3H830.642V335.6H885.042V342.3H861.442V404H854.242Z" fill="#212529"/>
  <path d="M892.109 404V335.6H899.309V404H892.109Z" fill="#212529"/>
  <path d="M911.281 404V335.6H920.981L952.981 391.4H953.581L952.981 335.6H960.181V404H950.481L918.481 348.2H917.881L918.481 404H911.281Z" fill="#212529"/>
  <path d="M970.141 404V335.6H1025.34V342.3H977.341V365.8H1022.54V372.5H977.341V397.3H1025.34V404H970.141Z" fill="#212529"/>
  <text x="600" y="500" font-family="Arial" font-size="24" fill="#212529" text-anchor="middle">Desktop image placeholder (1200x800px)</text>
</svg>