<svg xmlns="http://www.w3.org/2000/svg" width="375" height="812" viewBox="0 0 375 812" fill="none">
  <rect width="375" height="812" fill="#E9ECEF"/>
  <rect x="37" y="112" width="300" height="588" fill="#CED4DA"/>
  <rect x="87" y="212" width="200" height="388" fill="#ADB5BD"/>
  <path d="M134 360C134 353.333 135.333 347.333 138 342C140.667 336.667 144.4 332.467 149.2 329.4C154 326.333 159.6 324.8 166 324.8C173.2 324.8 179.333 326.733 184.4 330.6C189.467 334.467 192.8 339.867 194.4 346.8H181.2C180.133 343.6 178.267 341.133 175.6 339.4C172.933 337.667 169.733 336.8 166 336.8C162.267 336.8 159.067 337.733 156.4 339.6C153.733 341.467 151.733 344.133 150.4 347.6C149.067 351.067 148.4 355.133 148.4 359.8C148.4 364.467 149.067 368.533 150.4 372C151.733 375.467 153.733 378.133 156.4 380C159.067 381.867 162.267 382.8 166 382.8C169.733 382.8 172.933 381.933 175.6 380.2C178.267 378.467 180.133 376 181.2 372.8H194.4C192.8 379.733 189.467 385.133 184.4 389C179.333 392.867 173.2 394.8 166 394.8C159.6 394.8 154 393.267 149.2 390.2C144.4 387.133 140.667 382.933 138 377.6C135.333 372.267 134 366.467 134 360Z" fill="#212529"/>
  <path d="M200.125 394V325.6H223.325C229.058 325.6 233.858 326.8 237.725 329.2C241.592 331.6 244.525 334.867 246.525 339C248.525 343.133 249.525 347.8 249.525 353C249.525 358.2 248.525 362.867 246.525 367C244.525 371.133 241.592 374.4 237.725 376.8C233.858 379.2 229.058 380.4 223.325 380.4H207.325V394H200.125ZM207.325 373.8H222.925C227.258 373.8 230.725 373 233.325 371.4C235.925 369.8 237.792 367.6 238.925 364.8C240.058 362 240.625 357.8 240.625 353.2C240.625 348.6 240.058 344.733 238.925 341.6C237.792 338.467 235.925 336.067 233.325 334.4C230.725 332.733 227.258 331.9 222.925 331.9H207.325V373.8Z" fill="#212529"/>
  <path d="M259.898 394V325.6H315.098V332.3H267.098V355.8H312.298V362.5H267.098V387.3H315.098V394H259.898Z" fill="#212529"/>
  <path d="M240.117 474V405.6H279.917C284.517 405.6 288.45 406.467 291.717 408.2C294.983 409.933 297.45 412.2 299.117 415C300.783 417.8 301.617 420.933 301.617 424.4C301.617 428.467 300.517 432.067 298.317 435.2C296.117 438.333 292.917 440.533 288.717 441.8V442.2C293.45 442.733 297.05 444.6 299.517 447.8C301.983 451 303.217 454.933 303.217 459.6C303.217 463.467 302.317 466.933 300.517 470C298.717 473.067 296.05 475.467 292.517 477.2C288.983 478.933 284.717 479.8 279.717 479.8C278.517 479.8 277.383 479.767 276.317 479.7C275.25 479.633 274.383 479.567 273.717 479.5V474H240.117ZM247.317 436.8H278.317C282.05 436.8 285.117 436.067 287.517 434.6C289.917 433.133 291.65 431.233 292.717 428.9C293.783 426.567 294.317 424.067 294.317 421.4C294.317 418.733 293.717 416.4 292.517 414.4C291.317 412.4 289.45 410.867 286.917 409.8C284.383 408.733 281.117 408.2 277.117 408.2H247.317V436.8ZM247.317 471.4H279.717C283.45 471.4 286.65 470.933 289.317 470C291.983 469.067 294.05 467.567 295.517 465.5C296.983 463.433 297.717 460.8 297.717 457.6C297.717 454.267 296.917 451.533 295.317 449.4C293.717 447.267 291.45 445.667 288.517 444.6C285.583 443.533 282.183 443 278.317 443H247.317V471.4Z" fill="#212529"/>
  <path d="M90.1641 570V501.6H99.8641L131.864 557.4H132.464L131.864 501.6H139.064V570H129.364L97.3641 514.2H96.7641L97.3641 570H90.1641Z" fill="#212529"/>
  <path d="M149.023 570V501.6H204.223V508.3H156.223V531.8H201.423V538.5H156.223V563.3H204.223V570H149.023Z" fill="#212529"/>
  <text x="187" y="650" font-family="Arial" font-size="20" fill="#212529" text-anchor="middle">Mobile image placeholder</text>
  <text x="187" y="676" font-family="Arial" font-size="20" fill="#212529" text-anchor="middle">(375x812px)</text>
</svg>